<svg width="45" height="40" viewBox="0 0 45 40" fill="none" xmlns="http://www.w3.org/2000/svg">
<mask id="mask0_39_203" style="mask-type:luminance" maskUnits="userSpaceOnUse" x="0" y="0" width="45" height="40">
<path d="M45 0H0V40H45V0Z" fill="white"/>
</mask>
<g mask="url(#mask0_39_203)">
<path d="M6.4285 2.93335L2.31421 20L6.4285 37.0667" stroke="white" stroke-width="1.2" stroke-linecap="round" stroke-linejoin="round"/>
<path d="M38.5713 2.93335L42.6856 20L38.5713 37.0667" stroke="white" stroke-width="1.2" stroke-linecap="round" stroke-linejoin="round"/>
<path d="M7.83496 16.0669C7.83496 15.4299 8.05863 14.9294 8.50598 14.5655C8.95333 14.1885 9.55657 14 10.3157 14L17.1886 24.2953L17.3919 24.1393L16.5582 22.8134V14C17.4393 14 18.1036 14.1625 18.5509 14.4875C19.0118 14.8124 19.2423 15.2934 19.2423 15.9304V26.2256C19.2423 26.7066 19.0254 27.1226 18.5916 27.4735C18.1714 27.8245 17.6834 28 17.1276 28L9.88869 17.1393L9.68535 17.3148L10.519 18.6407V26.0696C10.519 26.7066 10.2886 27.1876 9.82768 27.5125C9.38034 27.8375 8.7161 28 7.83496 28V16.0669ZM26.8583 15.3649C26.8583 15.0269 26.9871 14.7474 27.2446 14.5265C27.5022 14.2925 27.8275 14.1755 28.2207 14.1755H33.8735C34.8495 14.1755 35.7103 14.364 36.4559 14.7409C37.215 15.1049 37.7979 15.6314 38.2046 16.3203C38.6248 16.9963 38.835 17.7827 38.835 18.6797C38.835 19.5896 38.6316 20.389 38.2249 21.078C37.8183 21.7539 37.2421 22.2804 36.4966 22.6574C35.751 23.0214 34.8766 23.2033 33.8735 23.2033H29.583V26.0696C29.583 26.6936 29.3458 27.1746 28.8713 27.5125C28.4104 27.8375 27.7394 28 26.8583 28V15.3649ZM33.8735 20.9415C34.592 20.9415 35.1477 20.74 35.5409 20.337C35.934 19.9341 36.1306 19.3751 36.1306 18.6602C36.1306 17.9582 35.9272 17.4123 35.5205 17.0223C35.1274 16.6323 34.5784 16.4373 33.8735 16.4373H29.583V20.9415H33.8735Z" fill="white"/>
</g>
</svg>
