<svg width="800" height="800" viewBox="0 0 800 800" fill="none" xmlns="http://www.w3.org/2000/svg">
<g clip-path="url(#clip0_39_188)">
<path d="M625.094 799.999H353.427L382.978 732.602C387.247 722.891 389.383 712.585 389.383 701.907C389.383 659.548 354.917 625.079 312.555 625.079C270.188 625.079 235.73 659.548 235.73 701.907C235.73 712.585 237.874 722.924 242.111 732.602L271.612 799.985H0.0136719V174.916H248.41C248.886 174.212 249.16 173.442 249.16 172.834C249.16 172.741 249.16 172.637 249.144 172.544C246.805 170.556 244.956 168.965 242.489 166.546C224.342 147.863 214.491 123.653 214.491 98.0737C214.491 43.9983 258.496 0.00137329 312.569 0.00137329C366.641 0.00137329 410.641 43.9983 410.641 98.0737C410.641 123.686 400.798 147.893 382.915 166.256L376.775 171.698C376.547 172.224 376.471 172.607 376.471 172.801C376.471 173.505 376.744 174.228 377.191 174.886H625.094V423.071C625.784 423.446 626.66 423.742 627.523 423.742C629.01 422.161 630.842 420.001 633.488 417.339C652.171 399.211 676.398 389.36 701.922 389.36C755.978 389.36 799.986 433.374 799.986 487.432C799.986 541.522 755.981 585.51 701.922 585.51C676.365 585.51 652.138 575.659 633.707 557.746L628.29 551.824C627.288 551.668 625.987 551.937 625.094 552.389V799.999ZM402.513 767.929H593.021V548.344C593.021 544.523 594.037 540.752 595.962 537.509C605.641 520.814 630.289 514.551 646.984 525.451L650.145 528.176L656.082 534.784C668.466 546.813 684.756 553.451 701.917 553.451C738.311 553.451 767.908 523.838 767.908 487.46C767.908 451.066 738.297 421.438 701.917 421.438C684.767 421.438 668.466 428.077 656.049 440.135C654.622 441.576 653.51 442.954 652.401 444.315C650.364 446.87 647.641 449.466 645.385 450.986C625.562 462.026 605.266 453.93 595.932 437.881C594.007 434.529 593.021 430.865 593.021 427.105V206.986H373.453C369.703 206.986 365.998 205.992 362.758 204.135C351.436 197.589 344.412 185.594 344.412 172.832C344.412 166.004 346.542 159.152 350.59 152.998L355.013 148.104L359.389 144.431C372.122 131.075 378.549 115.04 378.549 98.0709C378.549 61.6683 348.952 32.0714 312.55 32.0714C276.147 32.0714 246.545 61.6683 246.545 98.0709C246.545 115.248 253.183 131.521 265.211 143.922C266.652 145.332 267.89 146.357 269.111 147.321C271.836 149.512 274.528 152.341 276.048 154.595C279.721 161.189 281.216 167.006 281.216 172.815C281.216 185.531 274.241 197.496 262.996 204.031C259.693 205.959 255.957 206.967 252.175 206.967H32.0864V767.893H222.573L212.747 745.439C206.732 731.674 203.67 717.03 203.67 701.904C203.67 641.864 252.512 593.006 312.569 593.006C372.617 593.006 421.467 641.864 421.467 701.904C421.467 717.047 418.416 731.69 412.369 745.469L402.513 767.929Z" fill="#0073FF"/>
<path d="M122.592 345.808C122.592 337.184 125.496 330.408 131.304 325.48C137.112 320.376 144.944 317.824 154.8 317.824L244.032 457.216L246.672 455.104L235.848 437.152V317.824C247.288 317.824 255.912 320.024 261.72 324.424C267.704 328.824 270.696 335.336 270.696 343.96V483.352C270.696 489.864 267.88 495.496 262.248 500.248C256.792 505 250.456 507.376 243.24 507.376L149.256 360.328L146.616 362.704L157.44 380.656V481.24C157.44 489.864 154.448 496.376 148.464 500.776C142.656 505.176 134.032 507.376 122.592 507.376V345.808ZM369.576 336.304C369.576 331.728 371.248 327.944 374.592 324.952C377.936 321.784 382.16 320.2 387.264 320.2H460.656C473.328 320.2 484.504 322.752 494.184 327.856C504.04 332.784 511.608 339.912 516.888 349.24C522.344 358.392 525.072 369.04 525.072 381.184C525.072 393.504 522.432 404.328 517.152 413.656C511.872 422.808 504.392 429.936 494.712 435.04C485.032 439.968 473.68 442.432 460.656 442.432H404.952V481.24C404.952 489.688 401.872 496.2 395.712 500.776C389.728 505.176 381.016 507.376 369.576 507.376V336.304ZM460.656 411.808C469.984 411.808 477.2 409.08 482.304 403.624C487.408 398.168 489.96 390.6 489.96 380.92C489.96 371.416 487.32 364.024 482.04 358.744C476.936 353.464 469.808 350.824 460.656 350.824H404.952V411.808H460.656Z" fill="#0073FF"/>
</g>
<defs>
<clipPath id="clip0_39_188">
<rect width="800" height="800" fill="white"/>
</clipPath>
</defs>
</svg>
